<mxfile host="Electron" modified="2023-07-14T21:48:49.483Z" agent="Mozilla/5.0 (Macintosh; Intel Mac OS X 10_15_7) AppleWebKit/537.36 (KHTML, like Gecko) draw.io/21.1.2 Chrome/106.0.5249.199 Electron/21.4.3 Safari/537.36" etag="Nj1wxHb4OXSTVccRusfv" version="21.1.2" type="device">
  <diagram id="C5RBs43oDa-KdzZeNtuy" name="Page-1">
    <mxGraphModel dx="918" dy="1632" grid="1" gridSize="10" guides="1" tooltips="1" connect="1" arrows="1" fold="1" page="1" pageScale="1" pageWidth="827" pageHeight="1169" math="0" shadow="0">
      <root>
        <mxCell id="WIyWlLk6GJQsqaUBKTNV-0" />
        <mxCell id="WIyWlLk6GJQsqaUBKTNV-1" parent="WIyWlLk6GJQsqaUBKTNV-0" />
        <mxCell id="iXKM97fKE3sJKY6B-Gt0-13" style="edgeStyle=orthogonalEdgeStyle;rounded=0;orthogonalLoop=1;jettySize=auto;html=1;entryX=0.5;entryY=0;entryDx=0;entryDy=0;" edge="1" parent="WIyWlLk6GJQsqaUBKTNV-1" source="eF4knKeI3f7480-nig-y-48" target="iXKM97fKE3sJKY6B-Gt0-0">
          <mxGeometry relative="1" as="geometry" />
        </mxCell>
        <mxCell id="eF4knKeI3f7480-nig-y-48" value="Start" style="rounded=1;whiteSpace=wrap;html=1;" parent="WIyWlLk6GJQsqaUBKTNV-1" vertex="1">
          <mxGeometry x="341" y="-1160" width="120" height="60" as="geometry" />
        </mxCell>
        <mxCell id="eF4knKeI3f7480-nig-y-57" value="End" style="rounded=1;whiteSpace=wrap;html=1;" parent="WIyWlLk6GJQsqaUBKTNV-1" vertex="1">
          <mxGeometry x="320" y="-310" width="120" height="60" as="geometry" />
        </mxCell>
        <mxCell id="iXKM97fKE3sJKY6B-Gt0-14" style="edgeStyle=orthogonalEdgeStyle;rounded=0;orthogonalLoop=1;jettySize=auto;html=1;entryX=0.5;entryY=0;entryDx=0;entryDy=0;" edge="1" parent="WIyWlLk6GJQsqaUBKTNV-1" source="iXKM97fKE3sJKY6B-Gt0-0" target="iXKM97fKE3sJKY6B-Gt0-1">
          <mxGeometry relative="1" as="geometry" />
        </mxCell>
        <mxCell id="iXKM97fKE3sJKY6B-Gt0-0" value="&lt;div style=&quot;background-color: rgb(255, 255, 255); font-family: Menlo, Monaco, &amp;quot;Courier New&amp;quot;, monospace; line-height: 18px;&quot;&gt;&lt;font style=&quot;font-size: 10px;&quot;&gt;Читаем с консоли через пробел&amp;nbsp;&lt;/font&gt;&lt;/div&gt;&lt;div style=&quot;background-color: rgb(255, 255, 255); font-family: Menlo, Monaco, &amp;quot;Courier New&amp;quot;, monospace; line-height: 18px;&quot;&gt;&lt;font style=&quot;font-size: 10px;&quot;&gt;элементы массива&amp;nbsp;&lt;/font&gt;&lt;/div&gt;" style="shape=parallelogram;perimeter=parallelogramPerimeter;whiteSpace=wrap;html=1;fixedSize=1;" vertex="1" parent="WIyWlLk6GJQsqaUBKTNV-1">
          <mxGeometry x="286" y="-1080" width="230" height="60" as="geometry" />
        </mxCell>
        <mxCell id="iXKM97fKE3sJKY6B-Gt0-15" style="edgeStyle=orthogonalEdgeStyle;rounded=0;orthogonalLoop=1;jettySize=auto;html=1;entryX=0.5;entryY=0;entryDx=0;entryDy=0;" edge="1" parent="WIyWlLk6GJQsqaUBKTNV-1" source="iXKM97fKE3sJKY6B-Gt0-1" target="iXKM97fKE3sJKY6B-Gt0-3">
          <mxGeometry relative="1" as="geometry" />
        </mxCell>
        <mxCell id="iXKM97fKE3sJKY6B-Gt0-1" value="&lt;div style=&quot;background-color: rgb(255, 255, 255); font-family: Menlo, Monaco, &amp;quot;Courier New&amp;quot;, monospace; line-height: 18px;&quot;&gt;&lt;font style=&quot;font-size: 10px;&quot;&gt;Помещаем все слова в массив words посредством phrase.Split(&lt;span style=&quot;color: #a31515;&quot;&gt;&#39; &#39;&lt;/span&gt;);&lt;/font&gt;&lt;/div&gt;" style="whiteSpace=wrap;html=1;aspect=fixed;" vertex="1" parent="WIyWlLk6GJQsqaUBKTNV-1">
          <mxGeometry x="341" y="-1000" width="120" height="120" as="geometry" />
        </mxCell>
        <mxCell id="iXKM97fKE3sJKY6B-Gt0-16" style="edgeStyle=orthogonalEdgeStyle;rounded=0;orthogonalLoop=1;jettySize=auto;html=1;entryX=0.5;entryY=0;entryDx=0;entryDy=0;" edge="1" parent="WIyWlLk6GJQsqaUBKTNV-1" source="iXKM97fKE3sJKY6B-Gt0-3" target="iXKM97fKE3sJKY6B-Gt0-5">
          <mxGeometry relative="1" as="geometry">
            <Array as="points">
              <mxPoint x="315" y="-770" />
            </Array>
          </mxGeometry>
        </mxCell>
        <mxCell id="iXKM97fKE3sJKY6B-Gt0-23" style="edgeStyle=orthogonalEdgeStyle;rounded=0;orthogonalLoop=1;jettySize=auto;html=1;entryX=1;entryY=0.5;entryDx=0;entryDy=0;" edge="1" parent="WIyWlLk6GJQsqaUBKTNV-1" source="iXKM97fKE3sJKY6B-Gt0-3" target="iXKM97fKE3sJKY6B-Gt0-7">
          <mxGeometry relative="1" as="geometry">
            <Array as="points">
              <mxPoint x="556" y="-825" />
              <mxPoint x="556" y="-600" />
            </Array>
          </mxGeometry>
        </mxCell>
        <mxCell id="iXKM97fKE3sJKY6B-Gt0-3" value="&lt;font style=&quot;font-size: 10px;&quot;&gt;Задаем переменную counter.&lt;br&gt;Определяем размер нового массива&amp;nbsp;&lt;br&gt;&amp;nbsp;foreach&lt;span style=&quot;background-color: rgb(255, 255, 255); font-family: Menlo, Monaco, &amp;quot;Courier New&amp;quot;, monospace;&quot;&gt; (&lt;/span&gt;&lt;span style=&quot;font-family: Menlo, Monaco, &amp;quot;Courier New&amp;quot;, monospace; color: rgb(0, 0, 255);&quot;&gt;string&lt;/span&gt;&lt;span style=&quot;background-color: rgb(255, 255, 255); font-family: Menlo, Monaco, &amp;quot;Courier New&amp;quot;, monospace;&quot;&gt; s &lt;/span&gt;&lt;span style=&quot;font-family: Menlo, Monaco, &amp;quot;Courier New&amp;quot;, monospace; color: rgb(0, 0, 255);&quot;&gt;in&lt;/span&gt;&lt;span style=&quot;background-color: rgb(255, 255, 255); font-family: Menlo, Monaco, &amp;quot;Courier New&amp;quot;, monospace;&quot;&gt; words)&amp;nbsp;&lt;/span&gt;&lt;/font&gt;" style="shape=hexagon;perimeter=hexagonPerimeter2;whiteSpace=wrap;html=1;fixedSize=1;" vertex="1" parent="WIyWlLk6GJQsqaUBKTNV-1">
          <mxGeometry x="266" y="-860" width="270" height="70" as="geometry" />
        </mxCell>
        <mxCell id="iXKM97fKE3sJKY6B-Gt0-17" style="edgeStyle=orthogonalEdgeStyle;rounded=0;orthogonalLoop=1;jettySize=auto;html=1;entryX=0;entryY=0.5;entryDx=0;entryDy=0;" edge="1" parent="WIyWlLk6GJQsqaUBKTNV-1" source="iXKM97fKE3sJKY6B-Gt0-5" target="iXKM97fKE3sJKY6B-Gt0-3">
          <mxGeometry relative="1" as="geometry">
            <mxPoint x="200" y="-830" as="targetPoint" />
            <Array as="points">
              <mxPoint x="246" y="-716" />
              <mxPoint x="246" y="-825" />
            </Array>
          </mxGeometry>
        </mxCell>
        <mxCell id="iXKM97fKE3sJKY6B-Gt0-18" style="edgeStyle=orthogonalEdgeStyle;rounded=0;orthogonalLoop=1;jettySize=auto;html=1;entryX=0;entryY=0.5;entryDx=0;entryDy=0;" edge="1" parent="WIyWlLk6GJQsqaUBKTNV-1" source="iXKM97fKE3sJKY6B-Gt0-5" target="iXKM97fKE3sJKY6B-Gt0-6">
          <mxGeometry relative="1" as="geometry" />
        </mxCell>
        <mxCell id="iXKM97fKE3sJKY6B-Gt0-5" value="&lt;div style=&quot;background-color: rgb(255, 255, 255); font-family: Menlo, Monaco, &amp;quot;Courier New&amp;quot;, monospace; line-height: 18px;&quot;&gt;&lt;font style=&quot;font-size: 10px;&quot;&gt;   if (s.Length &amp;lt;= &lt;span style=&quot;color: #098658;&quot;&gt;3&lt;/span&gt;)&lt;/font&gt;&lt;/div&gt;" style="rhombus;whiteSpace=wrap;html=1;" vertex="1" parent="WIyWlLk6GJQsqaUBKTNV-1">
          <mxGeometry x="250" y="-763" width="131" height="93" as="geometry" />
        </mxCell>
        <mxCell id="iXKM97fKE3sJKY6B-Gt0-22" style="edgeStyle=orthogonalEdgeStyle;rounded=0;orthogonalLoop=1;jettySize=auto;html=1;entryX=0.698;entryY=1.009;entryDx=0;entryDy=0;entryPerimeter=0;" edge="1" parent="WIyWlLk6GJQsqaUBKTNV-1" source="iXKM97fKE3sJKY6B-Gt0-6" target="iXKM97fKE3sJKY6B-Gt0-3">
          <mxGeometry relative="1" as="geometry" />
        </mxCell>
        <mxCell id="iXKM97fKE3sJKY6B-Gt0-6" value="&lt;div style=&quot;background-color: rgb(255, 255, 255); font-family: Menlo, Monaco, &amp;quot;Courier New&amp;quot;, monospace; line-height: 18px;&quot;&gt;&lt;font style=&quot;font-size: 10px;&quot;&gt;counter++&lt;/font&gt;&lt;/div&gt;" style="whiteSpace=wrap;html=1;aspect=fixed;" vertex="1" parent="WIyWlLk6GJQsqaUBKTNV-1">
          <mxGeometry x="420" y="-751.5" width="70" height="70" as="geometry" />
        </mxCell>
        <mxCell id="iXKM97fKE3sJKY6B-Gt0-24" style="edgeStyle=orthogonalEdgeStyle;rounded=0;orthogonalLoop=1;jettySize=auto;html=1;entryX=0.5;entryY=0;entryDx=0;entryDy=0;" edge="1" parent="WIyWlLk6GJQsqaUBKTNV-1" source="iXKM97fKE3sJKY6B-Gt0-7" target="iXKM97fKE3sJKY6B-Gt0-12">
          <mxGeometry relative="1" as="geometry">
            <Array as="points">
              <mxPoint x="316" y="-540" />
              <mxPoint x="315" y="-540" />
            </Array>
          </mxGeometry>
        </mxCell>
        <mxCell id="iXKM97fKE3sJKY6B-Gt0-28" style="edgeStyle=orthogonalEdgeStyle;rounded=0;orthogonalLoop=1;jettySize=auto;html=1;entryX=1;entryY=0.5;entryDx=0;entryDy=0;" edge="1" parent="WIyWlLk6GJQsqaUBKTNV-1" source="iXKM97fKE3sJKY6B-Gt0-7" target="iXKM97fKE3sJKY6B-Gt0-10">
          <mxGeometry relative="1" as="geometry">
            <Array as="points">
              <mxPoint x="560" y="-600" />
              <mxPoint x="560" y="-370" />
            </Array>
          </mxGeometry>
        </mxCell>
        <mxCell id="iXKM97fKE3sJKY6B-Gt0-7" value="&lt;font style=&quot;font-size: 10px;&quot;&gt;Задаем переменную i = 0;&lt;br&gt;Создаем массив result размером [counter]&lt;br&gt;перебираем массив words посредством&lt;br&gt;&amp;nbsp;foreach&lt;span style=&quot;background-color: rgb(255, 255, 255); font-family: Menlo, Monaco, &amp;quot;Courier New&amp;quot;, monospace;&quot;&gt; (&lt;/span&gt;&lt;span style=&quot;font-family: Menlo, Monaco, &amp;quot;Courier New&amp;quot;, monospace; color: rgb(0, 0, 255);&quot;&gt;string&lt;/span&gt;&lt;span style=&quot;background-color: rgb(255, 255, 255); font-family: Menlo, Monaco, &amp;quot;Courier New&amp;quot;, monospace;&quot;&gt; s &lt;/span&gt;&lt;span style=&quot;font-family: Menlo, Monaco, &amp;quot;Courier New&amp;quot;, monospace; color: rgb(0, 0, 255);&quot;&gt;in&lt;/span&gt;&lt;span style=&quot;background-color: rgb(255, 255, 255); font-family: Menlo, Monaco, &amp;quot;Courier New&amp;quot;, monospace;&quot;&gt; words)&amp;nbsp;&lt;/span&gt;&lt;/font&gt;" style="shape=hexagon;perimeter=hexagonPerimeter2;whiteSpace=wrap;html=1;fixedSize=1;" vertex="1" parent="WIyWlLk6GJQsqaUBKTNV-1">
          <mxGeometry x="265" y="-640" width="271" height="80" as="geometry" />
        </mxCell>
        <mxCell id="iXKM97fKE3sJKY6B-Gt0-27" style="edgeStyle=orthogonalEdgeStyle;rounded=0;orthogonalLoop=1;jettySize=auto;html=1;entryX=0.701;entryY=1.007;entryDx=0;entryDy=0;entryPerimeter=0;" edge="1" parent="WIyWlLk6GJQsqaUBKTNV-1" source="iXKM97fKE3sJKY6B-Gt0-9" target="iXKM97fKE3sJKY6B-Gt0-7">
          <mxGeometry relative="1" as="geometry" />
        </mxCell>
        <mxCell id="iXKM97fKE3sJKY6B-Gt0-9" value="&lt;div style=&quot;background-color: rgb(255, 255, 255); font-family: Menlo, Monaco, &amp;quot;Courier New&amp;quot;, monospace; line-height: 18px;&quot;&gt;&lt;font style=&quot;font-size: 10px;&quot;&gt;Заполняем массив result&amp;nbsp;&lt;/font&gt;&lt;/div&gt;&lt;div style=&quot;background-color: rgb(255, 255, 255); font-family: Menlo, Monaco, &amp;quot;Courier New&amp;quot;, monospace; line-height: 18px;&quot;&gt;&lt;div style=&quot;line-height: 18px;&quot;&gt;&lt;font style=&quot;font-size: 10px;&quot;&gt;  result[i] = s;&lt;/font&gt;&lt;/div&gt;&lt;div style=&quot;line-height: 18px;&quot;&gt;&lt;font style=&quot;font-size: 10px;&quot;&gt;Задаем итерацию i++&lt;/font&gt;&lt;/div&gt;&lt;/div&gt;" style="whiteSpace=wrap;html=1;aspect=fixed;" vertex="1" parent="WIyWlLk6GJQsqaUBKTNV-1">
          <mxGeometry x="405" y="-533.5" width="100" height="100" as="geometry" />
        </mxCell>
        <mxCell id="iXKM97fKE3sJKY6B-Gt0-29" style="edgeStyle=orthogonalEdgeStyle;rounded=0;orthogonalLoop=1;jettySize=auto;html=1;entryX=0.5;entryY=0;entryDx=0;entryDy=0;" edge="1" parent="WIyWlLk6GJQsqaUBKTNV-1" source="iXKM97fKE3sJKY6B-Gt0-10" target="eF4knKeI3f7480-nig-y-57">
          <mxGeometry relative="1" as="geometry" />
        </mxCell>
        <mxCell id="iXKM97fKE3sJKY6B-Gt0-10" value="&lt;font style=&quot;font-size: 10px;&quot;&gt;Выводим новый массив result&lt;/font&gt;" style="shape=document;whiteSpace=wrap;html=1;boundedLbl=1;" vertex="1" parent="WIyWlLk6GJQsqaUBKTNV-1">
          <mxGeometry x="280" y="-410" width="200" height="80" as="geometry" />
        </mxCell>
        <mxCell id="iXKM97fKE3sJKY6B-Gt0-25" style="edgeStyle=orthogonalEdgeStyle;rounded=0;orthogonalLoop=1;jettySize=auto;html=1;entryX=0;entryY=0.5;entryDx=0;entryDy=0;" edge="1" parent="WIyWlLk6GJQsqaUBKTNV-1" source="iXKM97fKE3sJKY6B-Gt0-12" target="iXKM97fKE3sJKY6B-Gt0-7">
          <mxGeometry relative="1" as="geometry">
            <Array as="points">
              <mxPoint x="240" y="-483" />
              <mxPoint x="240" y="-600" />
            </Array>
          </mxGeometry>
        </mxCell>
        <mxCell id="iXKM97fKE3sJKY6B-Gt0-26" style="edgeStyle=orthogonalEdgeStyle;rounded=0;orthogonalLoop=1;jettySize=auto;html=1;entryX=0;entryY=0.5;entryDx=0;entryDy=0;" edge="1" parent="WIyWlLk6GJQsqaUBKTNV-1" source="iXKM97fKE3sJKY6B-Gt0-12" target="iXKM97fKE3sJKY6B-Gt0-9">
          <mxGeometry relative="1" as="geometry" />
        </mxCell>
        <mxCell id="iXKM97fKE3sJKY6B-Gt0-12" value="&lt;div style=&quot;background-color: rgb(255, 255, 255); font-family: Menlo, Monaco, &amp;quot;Courier New&amp;quot;, monospace; line-height: 18px;&quot;&gt;&lt;font style=&quot;font-size: 10px;&quot;&gt;   if (s.Length &amp;lt;= &lt;span style=&quot;color: #098658;&quot;&gt;3&lt;/span&gt;)&lt;/font&gt;&lt;/div&gt;" style="rhombus;whiteSpace=wrap;html=1;" vertex="1" parent="WIyWlLk6GJQsqaUBKTNV-1">
          <mxGeometry x="250" y="-530" width="131" height="93" as="geometry" />
        </mxCell>
        <mxCell id="iXKM97fKE3sJKY6B-Gt0-19" value="&lt;font style=&quot;font-size: 10px;&quot;&gt;True&lt;/font&gt;" style="text;html=1;strokeColor=none;fillColor=none;align=center;verticalAlign=middle;whiteSpace=wrap;rounded=0;" vertex="1" parent="WIyWlLk6GJQsqaUBKTNV-1">
          <mxGeometry x="370.5" y="-740" width="60" height="30" as="geometry" />
        </mxCell>
        <mxCell id="iXKM97fKE3sJKY6B-Gt0-20" value="&lt;font style=&quot;font-size: 10px;&quot;&gt;False&lt;/font&gt;" style="text;html=1;strokeColor=none;fillColor=none;align=center;verticalAlign=middle;whiteSpace=wrap;rounded=0;rotation=270;" vertex="1" parent="WIyWlLk6GJQsqaUBKTNV-1">
          <mxGeometry x="205" y="-790" width="60" height="30" as="geometry" />
        </mxCell>
        <mxCell id="iXKM97fKE3sJKY6B-Gt0-30" value="&lt;font style=&quot;font-size: 10px;&quot;&gt;True&lt;/font&gt;" style="text;html=1;strokeColor=none;fillColor=none;align=center;verticalAlign=middle;whiteSpace=wrap;rounded=0;" vertex="1" parent="WIyWlLk6GJQsqaUBKTNV-1">
          <mxGeometry x="360" y="-510" width="60" height="30" as="geometry" />
        </mxCell>
        <mxCell id="iXKM97fKE3sJKY6B-Gt0-31" value="&lt;font style=&quot;font-size: 10px;&quot;&gt;False&lt;/font&gt;" style="text;html=1;strokeColor=none;fillColor=none;align=center;verticalAlign=middle;whiteSpace=wrap;rounded=0;rotation=270;" vertex="1" parent="WIyWlLk6GJQsqaUBKTNV-1">
          <mxGeometry x="200" y="-560" width="60" height="30" as="geometry" />
        </mxCell>
      </root>
    </mxGraphModel>
  </diagram>
</mxfile>
